PathFileType	4	(X/Y/Z)	 s06c0103.trc
DataRate	CameraRate	NumFrames	NumMarkers	Units	OrigDataRate	OrigDataStartFrame	OrigNumFrames
200	200	4	48	mm	200	1501	2000
Frame#	Time	racr			lacr			c7			jug			rlel			rdr			llel			ldr			s2			lic			ric			lasi			rasi			rpsi			lpsi			rgt			lgt			rth1			rth2			rth3			rth4			rlfc			rmfc			rsh1			rsh2			rsh3			rsh4			rlmal			rcal			rtoe			rmt5			lth1			lth2			lth4			lth3			llfc			lmfc			llmal			lcal			lmt5			lsh1			lsh2			lsh3			lsh4			ltoe			SBIKE			LBIKE			RBIKE			
		X1	Y1	Z1	X2	Y2	Z2	X3	Y3	Z3	X4	Y4	Z4	X5	Y5	Z5	X6	Y6	Z6	X7	Y7	Z7	X8	Y8	Z8	X9	Y9	Z9	X10	Y10	Z10	X11	Y11	Z11	X12	Y12	Z12	X13	Y13	Z13	X14	Y14	Z14	X15	Y15	Z15	X16	Y16	Z16	X17	Y17	Z17	X18	Y18	Z18	X19	Y19	Z19	X20	Y20	Z20	X21	Y21	Z21	X22	Y22	Z22	X23	Y23	Z23	X24	Y24	Z24	X25	Y25	Z25	X26	Y26	Z26	X27	Y27	Z27	X28	Y28	Z28	X29	Y29	Z29	X30	Y30	Z30	X31	Y31	Z31	X32	Y32	Z32	X33	Y33	Z33	X34	Y34	Z34	X35	Y35	Z35	X36	Y36	Z36	X37	Y37	Z37	X38	Y38	Z38	X39	Y39	Z39	X40	Y40	Z40	X41	Y41	Z41	X42	Y42	Z42	X43	Y43	Z43	X44	Y44	Z44	X45	Y45	Z45	X46	Y46	Z46	X47	Y47	Z47	X48	Y48	Z48	
1501	7.5050	505.902777	1295.082234	-65.258376	516.271233	1286.450990	-363.291694	520.668570	1348.698104	-216.141371	494.802286	1192.292543	-202.419216	502.150734	1042.982054	37.565707	707.956903	928.419526	-45.688347	508.929977	1038.345326	-476.594190	709.041810	923.194905	-407.028633	-24.423085	1144.897810	-222.766148	137.296219	1092.671375	-374.732871	114.471109	1129.786100	-48.180969	154.072214	1040.994684	-347.314481	142.664775	1089.160782	-76.891869	2.400152	1183.801317	-190.955117	6.685920	1178.445901	-250.424312	95.019851	1076.658180	-10.074584	93.249981	1015.332311	-407.346342	204.024710	1013.999473	-9.858442	292.515832	997.043068	-19.521452	358.181736	940.747300	-22.135495	303.473200	1026.653641	-41.364859	431.463860	862.624185	-52.404118	418.527040	837.304965	-165.131542	386.487446	743.997156	-26.570261	365.111416	661.142920	-46.513879	308.804936	595.038508	-45.530855	385.780281	654.643478	-80.428602	258.323344	520.293776	-51.851164	191.129182	496.724609	-99.925038	459.511098	430.703195	-95.220327	359.446549	428.651382	-27.786778	135.229341	898.445763	-429.102231	201.970879	842.393807	-429.295982	232.306010	863.066984	-421.186861	232.090775	758.274124	-423.610992	262.063900	653.433945	-398.972618	272.468776	637.720138	-283.247655	49.818114	356.128428	-367.308149	-16.814703	376.366663	-318.366454	101.775868	221.600169	-397.429491	208.160130	560.797635	-415.115129	175.887017	484.176535	-389.330395	108.204945	427.921263	-384.121269	200.818154	473.375696	-361.212683	172.870828	168.778811	-341.145091	-205.353646	867.131674	-202.240036	-52.434110	83.853469	-410.341000	-50.980045	80.302517	-12.778222	
1502	7.5100	507.013214	1293.619586	-65.091593	516.007352	1285.207068	-363.763173	521.305409	1347.580393	-216.597534	495.808249	1191.389257	-202.704759	502.575941	1041.350687	38.084748	708.353595	927.620912	-45.270344	508.313391	1036.797810	-475.947787	709.073184	923.003883	-406.349835	-23.759558	1143.886618	-222.413239	137.426187	1091.839372	-374.158956	115.735468	1127.364085	-47.631463	154.281424	1040.204539	-347.142806	144.110063	1087.271193	-76.849660	3.186477	1182.719480	-190.209113	7.477750	1177.542557	-250.164812	95.602289	1072.864249	-10.013045	93.812291	1015.181872	-407.587438	204.362606	1008.311287	-9.455313	292.486959	989.476676	-18.972739	357.017829	931.784407	-21.932484	304.171841	1019.108217	-40.704456	428.861086	852.312415	-51.646672	416.556428	826.496855	-163.816116	384.893580	733.172367	-25.767750	365.157399	649.897919	-45.934709	310.155136	582.898347	-45.301516	385.003242	643.918577	-79.600221	260.984587	508.037025	-51.673694	194.262772	482.965954	-99.743955	464.315255	423.430219	-95.048763	364.168519	419.027894	-27.420527	137.592424	899.768512	-429.224094	205.273499	844.948689	-429.262851	235.186289	866.025995	-420.746065	236.859801	761.370389	-424.121208	267.547146	656.719255	-399.290180	276.851186	641.461900	-283.435417	47.384929	365.436830	-366.938245	-18.986471	387.050017	-317.942855	96.684228	230.189696	-397.195869	211.380870	565.278553	-415.200135	177.105724	489.640265	-389.040931	107.916419	435.114286	-383.711287	201.509525	478.420111	-360.594560	166.759907	175.842678	-340.915664	-204.995459	867.276770	-202.301308	-52.396428	83.811862	-410.255861	-50.910340	80.133918	-12.784565	
1503	7.5150	508.220830	1292.178777	-64.957596	515.771449	1284.157188	-364.066439	521.939685	1346.618349	-216.941723	495.406906	1189.984058	-207.384353	503.336918	1039.761090	38.634208	708.794127	926.725500	-44.851570	507.615715	1035.467209	-475.335538	709.208546	922.852258	-405.787687	-23.142762	1143.016979	-221.827074	137.647127	1091.365819	-373.699086	117.012580	1124.840599	-47.064665	154.508420	1039.391269	-347.003746	145.554755	1085.272691	-76.774071	4.151577	1181.620331	-189.423231	8.073525	1176.720903	-249.141396	95.956459	1068.878993	-10.040228	94.611946	1015.288892	-407.844280	204.762605	1002.344479	-8.868895	292.477887	981.781437	-18.013523	355.657926	922.460904	-21.411474	304.890186	1011.228179	-39.811185	425.881956	841.380858	-50.624315	414.433042	815.271604	-162.327646	383.162594	721.981866	-24.926274	365.006407	638.320126	-45.455151	311.215781	570.294355	-45.247891	385.005824	632.838569	-79.190109	263.514935	495.445555	-52.195424	197.280953	469.225809	-99.749232	468.638407	415.432289	-94.854787	368.524006	408.993941	-27.343515	140.056752	901.463977	-429.217948	208.760896	847.754994	-429.214179	238.237842	869.286066	-420.338985	241.778897	764.803065	-424.805777	273.102248	660.192784	-399.767197	281.312391	645.461695	-283.785309	45.433563	374.935394	-366.588256	-20.597327	397.862064	-317.545455	92.157330	239.037310	-396.852617	214.805398	570.023115	-415.354602	178.745911	495.717272	-389.484298	108.078625	442.321812	-383.077072	202.226066	483.592707	-359.597790	161.239805	183.386911	-340.739166	-204.723714	867.255960	-202.090885	-52.341481	83.807851	-410.212943	-50.860314	80.071510	-12.745217	
1504	7.5200	509.403302	1290.775237	-64.790468	515.551262	1283.193130	-364.240805	522.588285	1345.729190	-217.225795	496.559687	1189.024604	-207.928253	504.278585	1038.330107	39.245019	709.250125	925.849728	-44.560122	507.047075	1034.078875	-474.855318	709.381463	922.757958	-405.311659	-22.394382	1141.987234	-221.358175	138.033903	1091.123574	-373.284239	118.321286	1122.040380	-46.528146	154.781413	1039.039837	-346.697870	146.948860	1083.003273	-76.796460	5.068482	1180.377482	-188.281460	8.657784	1175.814185	-248.131847	96.586368	1064.842337	-10.180194	95.698840	1015.801905	-408.017576	204.854703	996.290915	-8.266703	292.157530	973.390340	-17.622889	353.861046	913.121700	-20.447972	305.650074	1003.111446	-38.445592	422.522805	830.037767	-49.489295	411.880291	803.863047	-160.319552	381.096326	710.486044	-24.354526	364.533260	626.481491	-45.186904	312.080292	557.459278	-45.461746	384.736486	621.645074	-78.936677	265.970524	483.160038	-52.347576	200.163969	455.918163	-100.035140	472.501101	406.817926	-94.759791	372.555437	398.738195	-27.377153	142.785745	903.331146	-429.243038	212.398533	850.837381	-429.216792	241.399217	872.749908	-419.918102	246.815280	768.271393	-425.103805	278.668093	663.773651	-400.374620	286.113580	649.554178	-284.234525	43.961257	384.733183	-366.307893	-21.730425	408.972850	-317.198162	88.264224	248.359514	-396.691846	218.386843	574.984013	-415.549424	180.553849	501.481802	-389.522439	108.489562	449.977336	-382.724542	203.463932	489.423737	-359.243845	156.310012	191.357495	-340.623111	-204.524631	867.219305	-201.970504	-52.287808	83.756390	-410.163566	-50.748350	79.928645	-12.721961	
